# xmcd
#
# Track frame offsets: 
#        182
#        18107
#        31390
#        43765
#        57467
#        70132
#        100882
#        110112
#        117637
#        122922
#        128135
#        147337
#        151162
#        157810
#        165045
#        207640
#
# Disc length: 2890 seconds
#
# Revision: 2
# Processed by: cddbd v1.5.1PL0 Copyright (c) Steve Scherf et al.
# Submitted via: ExactAudioCopy v0.95a4
#
DISCID=de0b4810
DTITLE=Ry Cooder - Music by Ry Cooder, cd2
DYEAR=1900
DGENRE=Soundtrack
TTITLE0=King of the Street
TTITLE1=Sonny's Tune
TTITLE2=No Quiero
TTITLE3=Cruising with Rafe
TTITLE4=Klan Meeting
TTITLE5=I Can't Walk This Time/The Prestige
TTITLE6=East St. Louis
TTITLE7=Goose and Lucky
TTITLE8=Goyakla Is Coming
TTITLE9=Canoes Upstream
TTITLE10=Canción Mixteca
TTITLE11=Maria
TTITLE12=Bound For Canaan (Sieber and Davis)
TTITLE13=Bound For Canaan (The 6th Calvary)
TTITLE14=Train To Florida
TTITLE15=Houston In Two Seconds
EXTD=
EXTT0=
EXTT1=
EXTT2=
EXTT3=
EXTT4=
EXTT5=
EXTT6=
EXTT7=
EXTT8=
EXTT9=
EXTT10=
EXTT11=
EXTT12=
EXTT13=
EXTT14=
EXTT15=
PLAYORDER=
